<svg width="344" height="270" viewBox="0 0 344 270" fill="none" xmlns="http://www.w3.org/2000/svg">
<g clip-path="url(#clip0)">
<path opacity="0.1" d="M120.67 263.955C153.81 263.955 180.676 258.865 180.676 252.587C180.676 246.309 153.81 241.22 120.67 241.22C87.5296 241.22 60.6641 246.309 60.6641 252.587C60.6641 258.865 87.5296 263.955 120.67 263.955Z" fill="#7A86FF"/>
<path opacity="0.1" d="M199.864 37.9603C177.811 37.197 156.807 30.0753 136.75 22.2858C116.694 14.4963 96.8282 5.86851 75.3031 1.74203C61.4584 -0.912403 45.6238 -1.29063 34.4711 6.12407C23.7341 13.2798 20.2653 25.5979 18.4014 37.0368C16.9975 45.6442 16.1729 54.7047 20.0165 62.7634C22.688 68.3585 27.4244 73.0609 30.7024 78.4208C42.1073 97.0666 34.0452 120.06 21.6896 138.267C15.8969 146.806 9.16706 154.963 4.69302 164.044C0.218981 173.125 -1.84937 183.566 2.06584 192.855C5.94357 202.055 15.1881 208.952 25.2027 213.807C45.542 223.672 69.5001 226.493 92.8789 228.095C144.615 231.632 196.623 230.102 248.496 228.565C267.694 228 286.973 227.424 305.857 224.456C316.346 222.807 327.171 220.19 334.787 213.872C344.451 205.854 346.846 192.279 340.369 182.227C329.505 165.36 299.479 161.172 291.876 143.075C287.699 133.111 291.989 122.016 298.064 112.779C311.095 92.9572 332.933 75.5688 334.082 52.9158C334.872 37.3571 324.374 21.7747 308.14 14.4111C291.127 6.69312 267.53 7.66426 254.984 20.4389C242.052 33.5782 219.338 38.6384 199.864 37.9603Z" fill="#7A86FF"/>
<path d="M182.342 123.263L171.905 116.226L177.169 108.389L149.603 106.191L139.697 113.851L127.297 106.9L116.956 108.144L116.833 105.418C116.705 102.576 116.419 99.7432 115.978 96.933C116.022 96.0811 116.053 95.1031 116.049 94.04C116.049 89.5592 115.443 83.6199 112.778 79.6604L113.391 74.1471L108.416 68.2691C109.215 66.6777 110.126 65.145 111.142 63.6827C111.313 63.4373 111.483 63.1988 111.667 62.9671C118.124 62.5003 123.219 57.1914 123.219 50.7001C123.219 50.4003 123.219 50.1004 123.185 49.8039C123.185 49.6847 123.161 49.562 123.147 49.4427C123.777 49.7835 124.415 50.1242 125.052 50.465C125.171 50.6354 125.307 50.8057 125.457 51.0068L125.488 51.0443L125.679 51.2794L125.74 51.3509C125.808 51.4327 125.88 51.5111 125.951 51.5929L125.999 51.6474C126.18 51.8484 126.371 52.0529 126.575 52.2539C126.599 52.2737 126.622 52.2954 126.643 52.3187L126.899 52.5572L126.97 52.6219C127.188 52.8162 127.42 53.0036 127.652 53.1808L127.727 53.2353L128.02 53.4363L128.115 53.4977C128.228 53.5658 128.343 53.6374 128.456 53.7021L128.497 53.726C128.63 53.7975 128.766 53.8657 128.902 53.9304L128.97 53.9577C129.086 54.0077 129.2 54.0554 129.311 54.1008L129.417 54.1383C129.536 54.1792 129.652 54.2166 129.775 54.2507L129.85 54.2712C130 54.3086 130.149 54.3393 130.303 54.3632H130.32C130.464 54.3865 130.61 54.4013 130.756 54.4075H130.855C130.985 54.4143 131.116 54.4143 131.247 54.4075H131.332C131.495 54.398 131.658 54.3787 131.819 54.3495C132.582 54.2493 133.314 53.9867 133.966 53.5794C134.132 53.4684 134.279 53.3315 134.402 53.1739C135.084 52.2812 134.334 51.3032 134.334 51.3032C134.068 50.6694 132.344 50.2231 132.344 50.2231C132.344 50.2231 126.892 47.9469 126.892 46.1341C126.892 44.3213 125.529 34.9166 111.459 32.7665C111.459 32.7665 102.307 32.2519 99.7342 37.1519L99.6797 37.7244C98.9232 38.198 98.2962 39.1487 97.55 39.4281C97.2276 39.4974 96.9166 39.6121 96.6265 39.7689V39.7041C96.5404 39.7795 96.4698 39.8709 96.4187 39.9733C96.2584 40.2923 96.1623 40.6396 96.1359 40.9956C96.0591 41.4304 95.9081 41.8488 95.6895 42.2325C95.6285 42.3415 95.5602 42.4462 95.485 42.546L95.4271 42.638C95.8227 42.6688 96.2199 42.6046 96.5856 42.4506C96.528 42.9171 96.4136 43.3748 96.2449 43.8136C96.4615 43.8206 96.6756 43.7652 96.8616 43.6541C97.0477 43.5429 97.1979 43.3806 97.2944 43.1866V43.1593L97.3387 43.098C97.4244 42.9403 97.4951 42.7748 97.55 42.6039L97.5125 42.6448C97.5806 42.4233 97.642 42.1984 97.7169 41.9803C97.7513 41.8575 97.8079 41.742 97.8839 41.6396C97.9749 41.5479 98.0861 41.4789 98.2086 41.438C98.3311 41.3972 98.4615 41.3857 98.5893 41.4045L98.4495 44.3588H98.5109C98.4288 44.5737 98.3285 44.7811 98.211 44.9789C97.7272 45.7627 96.848 46.2976 96.5243 47.1563C96.3847 47.5705 96.3314 48.0088 96.3676 48.4443C96.3676 48.6999 96.3982 48.9589 96.4187 49.2144V49.194C96.4664 49.8755 96.48 50.5229 96.112 51.0715C95.8599 51.4464 95.4544 51.7292 95.3147 52.1551C95.276 52.2738 95.2587 52.3984 95.2635 52.5231C95.2909 52.8965 95.3688 53.2645 95.4953 53.6169C95.4967 53.6102 95.4967 53.6032 95.4953 53.5965C95.5802 53.8557 95.6001 54.1319 95.5532 54.4006C95.3998 55.0821 94.5718 55.6512 94.6127 56.302C94.6104 56.3876 94.6231 56.473 94.6502 56.5542C94.8095 56.8721 95.0854 57.1162 95.4203 57.2357C95.9457 57.5344 96.549 57.6675 97.1513 57.6173C97.377 57.5765 97.5953 57.5019 97.7987 57.3958C97.5602 57.9444 97.3149 58.4862 97.0661 59.0008C97.0286 59.0825 96.9877 59.1643 96.9468 59.2461C96.9468 59.2461 94.841 57.8388 93.645 60.7079C93.2958 61.3041 93.0461 61.9532 92.9056 62.6297C92.8456 62.9004 92.7612 63.1649 92.6534 63.4203C92.1224 64.3192 91.3277 65.033 90.3772 65.4648C87.9374 66.5824 78.083 78.8733 77.9092 82.0559C77.8239 83.2982 77.6139 84.5288 77.2822 85.7291C76.5065 88.5558 76.3072 91.5096 76.6961 94.4148C76.8179 95.3538 77.0197 96.2806 77.2992 97.1851C78.3453 100.364 79.0439 106.297 79.0439 106.297L80.1752 116.594C80.1332 118.015 80.1947 119.438 80.3592 120.85C79.204 122.169 74.5664 127.665 76.3383 129.161C77.7013 130.34 80.0866 130.146 81.4257 129.904C80.2978 132.695 78.5225 137.547 78.2874 140.879C77.9467 145.81 78.8701 152.342 80.3319 154.85C81.7937 157.358 86.6664 163.791 86.6664 163.791C86.6664 163.791 86.4381 172.617 88.1794 175.823C89.9206 179.03 90.6225 185.681 90.6225 185.681C90.6225 185.681 92.2479 191.297 91.4335 193.362C90.6191 195.427 92.943 197.144 90.5033 198.517C88.0635 199.89 84.9423 230.841 84.9423 230.841C84.9423 230.841 83.6849 251.125 84.9423 252.158C85.0095 252.207 85.0814 252.249 85.1569 252.284V259.099C85.1569 259.099 84.2846 260.53 87.8318 260.82C90.2613 261.014 97.1479 261.454 101.233 261.709L104.399 261.907C104.399 261.907 111.896 263.399 115.208 261.907C118.52 260.414 124.391 260.448 123.518 256.506C123.403 255.969 123.248 255.442 123.055 254.928C122.098 252.482 120.472 252.202 117.477 251.521C117.303 251.483 117.136 251.449 116.983 251.422C113.828 250.873 112.792 252.342 111.023 250.43C109.486 248.778 104.593 246.927 102.927 246.341C102.968 246.219 103.019 246.099 103.06 245.973C102.588 245.893 102.149 245.679 101.796 245.357L106.311 245.643L108.999 245.81C108.999 245.81 115.371 247.081 118.199 245.81C121.028 244.539 126.003 244.573 125.26 241.223C125.162 240.767 125.031 240.318 124.868 239.881C124.053 237.802 122.67 237.574 120.125 236.998C119.978 236.967 119.842 236.937 119.705 236.913C117.024 236.446 116.145 237.693 114.642 236.071C113.354 234.688 109.289 233.137 107.827 232.609C107.827 231.853 106.805 230.776 106.161 229.696C105.404 228.435 106.801 224.022 106.801 224.022L107.599 205.714C107.902 205.579 108.223 205.487 108.553 205.441C108.553 205.441 112.158 202 111.343 198.333C111.178 197.224 111.091 196.105 111.085 194.984C112.27 193.883 113.903 192.258 114.366 191.256C115.122 189.624 114.366 181.715 114.366 181.715V151.473L120.397 152.083L125.87 152.645L127.536 152.816L133.008 153.368L145.585 154.639L156.919 152.492L161.822 151.565L171.905 149.657V124.987L182.342 123.263ZM99.3321 41.5135L98.6301 41.4385C98.8619 41.4488 99.1072 41.4931 99.3321 41.5135Z" fill="url(#paint0_linear)"/>
<path d="M157.88 139.281C154.472 144.157 142.222 141.574 142.222 141.574L132.729 132.691L131.451 131.488L133.594 126.936C133.594 126.936 134.276 127.123 135.445 127.457C141.582 129.239 160.756 135.182 157.88 139.281Z" fill="#EFB7B9"/>
<path opacity="0.1" d="M135.438 127.457C135.019 128.915 133.87 131.1 132.729 132.691L131.451 131.488L133.594 126.936C133.594 126.936 134.283 127.123 135.438 127.457Z" fill="black"/>
<path d="M102.879 76.1197C102.879 76.1197 94.1289 80.0009 94.5583 89.5316C94.8672 95.6718 95.5362 101.789 96.5619 107.85C96.5619 107.85 94.7729 122.192 102.222 125.89C109.67 129.587 116.564 132.626 116.564 132.626C116.564 132.626 128.217 133.88 129.666 134.398C131.114 134.916 135.639 126.997 134.804 125.763C133.969 124.53 123.273 121.944 121.91 119.886C120.547 117.827 117.395 116.556 117.395 116.556C117.395 116.556 114.141 114.587 113.92 112.808C113.698 111.029 114.557 109.704 114.775 108.924C114.993 108.143 115.545 100.609 115.545 100.609C115.545 100.609 119.218 73.7924 102.879 76.1197Z" fill="#DCE6F2"/>
<path opacity="0.1" d="M108.654 107.459C108.654 107.459 96.6497 109.469 97.8116 113.671C97.8116 113.671 102.17 109.135 108.654 107.459Z" fill="black"/>
<path opacity="0.1" d="M108.746 109.159C108.746 109.159 102.146 114.546 103.437 114.822C104.728 115.098 108.746 109.159 108.746 109.159Z" fill="black"/>
<path opacity="0.1" d="M111.92 111.036C111.92 111.036 110.151 114.658 111.238 114.413C112.325 114.168 111.92 111.036 111.92 111.036Z" fill="black"/>
<path opacity="0.1" d="M135.881 127.842L135.151 127.634C135.359 126.953 135.417 126.401 135.247 126.145C134.412 124.912 123.723 122.329 122.363 120.267C121.003 118.206 117.848 116.938 117.848 116.938C117.848 116.938 114.594 114.969 114.372 113.19C114.151 111.411 115.01 110.086 115.228 109.306C115.446 108.525 115.998 100.988 115.998 100.988C115.998 100.988 119.661 74.1743 103.322 76.5016C103.322 76.5016 94.5715 80.3861 94.9975 89.9169C95.3065 96.0572 95.9767 102.174 97.0045 108.236C97.0045 108.236 95.2156 122.578 102.664 126.275C110.113 129.972 117.006 133.011 117.006 133.011C117.006 133.011 128.657 134.262 130.108 134.783C130.657 134.981 131.648 133.962 132.62 132.562L133.172 133.076L142.665 141.956C142.665 141.956 154.915 144.542 158.322 139.666C161.202 135.564 142.031 129.621 135.881 127.842Z" fill="black"/>
<path d="M97.8423 40.3484C97.5087 40.4136 97.1892 40.5371 96.8985 40.713C96.5577 40.9959 96.5577 41.4797 96.4725 41.9022C96.3724 42.49 96.1393 43.0471 95.791 43.531C96.1788 43.5595 96.5677 43.4952 96.9257 43.3436C96.8674 43.81 96.753 44.2676 96.585 44.7066C96.7973 44.712 97.0066 44.6561 97.188 44.5455C97.3693 44.4349 97.5148 44.2743 97.6072 44.083C97.7875 43.6991 97.9301 43.2985 98.0331 42.887C98.0651 42.7639 98.1207 42.6482 98.1967 42.5463C98.5102 42.1748 99.0929 42.3418 99.5767 42.3895C99.9794 42.4235 100.384 42.3491 100.748 42.1742C101.112 41.9992 101.423 41.73 101.648 41.3945C102.163 40.6142 102.194 38.6174 100.967 38.4062C99.6858 38.1949 98.8884 39.96 97.8423 40.3484Z" fill="#965D7B"/>
<g opacity="0.1">
<path opacity="0.1" d="M96.8646 41.1317C96.8952 40.9648 96.9157 40.791 96.9531 40.624C96.6294 40.9068 96.6124 41.3873 96.5272 41.8132C96.4843 42.059 96.4169 42.2998 96.3262 42.5322C96.5945 42.1046 96.7773 41.629 96.8646 41.1317Z" fill="black"/>
<path opacity="0.1" d="M96.9731 43.946C97.1428 43.5076 97.2572 43.0497 97.3138 42.583C96.9727 42.7266 96.6033 42.7907 96.2337 42.7704C96.1261 43.0101 95.9948 43.2384 95.8418 43.4519C96.2282 43.4818 96.6161 43.4187 96.9731 43.2679C96.9165 43.7346 96.802 44.1925 96.6323 44.6309C96.8446 44.6359 97.0538 44.5798 97.235 44.4692C97.4162 44.3586 97.5619 44.1983 97.6546 44.0073C97.7395 43.8525 97.808 43.6892 97.859 43.5201C97.7591 43.6598 97.6255 43.7721 97.4706 43.8465C97.3158 43.921 97.1447 43.9552 96.9731 43.946Z" fill="black"/>
<path opacity="0.1" d="M99.9647 41.6288C99.4809 41.5811 98.8948 41.4141 98.5813 41.7855C98.5067 41.8883 98.4512 42.0038 98.4177 42.1263C98.387 42.2149 98.3598 42.3069 98.3359 42.3989C98.6596 42.1433 99.1844 42.2796 99.624 42.3239C100.027 42.3568 100.431 42.2819 100.795 42.1071C101.159 41.9322 101.47 41.6637 101.696 41.3289C101.799 41.1635 101.876 40.983 101.924 40.7939C101.691 41.0828 101.39 41.3099 101.048 41.4555C100.707 41.601 100.335 41.6605 99.9647 41.6288Z" fill="black"/>
</g>
<path d="M108.1 68.4902L113.296 74.7396L112.618 81.0468L106.338 71.2162L108.1 68.4902Z" fill="#DCE6F2"/>
<path opacity="0.1" d="M113.293 74.7396L112.655 80.672L112.614 81.0468L106.948 72.1737L106.338 71.2162L106.515 70.9402L108.096 68.4902L108.447 68.9128L113.293 74.7396Z" fill="black"/>
<path d="M115.99 60.0299C114.232 60.5342 112.552 62.2652 111.09 64.3676C110.102 65.8182 109.219 67.3372 108.446 68.9132C107.966 69.8741 107.543 70.7976 107.192 71.6017L106.947 72.1742C106.354 73.5747 106.023 74.5117 106.023 74.5117C106.023 74.5117 92.5636 64.3915 94.6933 63.71C95.4089 63.4817 96.3494 61.9483 97.2796 60.0162L97.3955 59.7709C97.985 58.5306 98.5642 57.1471 99.0788 55.8455C100.132 53.1706 100.912 50.8467 100.912 50.8467C100.912 50.8467 121.357 58.4965 115.99 60.0299Z" fill="#EFB7B9"/>
<path d="M124.043 50.2773C124.043 50.2773 127.151 55.8997 131.325 55.133C135.499 54.3663 133.782 52.114 133.782 52.114L124.043 50.2773Z" fill="#444053"/>
<path d="M118.022 244.897C115.268 246.154 109.043 244.897 109.043 244.897L106.419 244.733C103.012 244.515 97.3074 244.147 95.2902 243.984C92.3461 243.742 93.0685 242.535 93.0685 242.535V235.247L107.353 231.628C107.353 231.628 112.999 233.56 114.546 235.247C116.015 236.855 116.873 235.618 119.494 236.082C119.623 236.105 119.759 236.133 119.903 236.167C122.39 236.736 123.739 236.961 124.537 239.022C124.697 239.455 124.826 239.899 124.922 240.351C125.658 243.67 120.771 243.646 118.022 244.897Z" fill="#A36468"/>
<path opacity="0.1" d="M124.537 239.022C124.025 239.342 123.487 239.617 122.928 239.846C121.054 240.702 119.272 241.744 117.378 242.552C115.483 243.359 113.442 243.935 111.391 243.782C110.317 243.704 109.22 243.441 108.194 243.748C107.56 243.993 106.963 244.324 106.419 244.733C103.012 244.515 97.3074 244.147 95.2902 243.983C92.3461 243.741 93.0685 242.535 93.0685 242.535V241.683C93.1741 241.683 93.2934 241.652 93.4297 241.642C94.1349 241.631 94.8371 241.736 95.5083 241.952C96.9871 242.354 98.4592 242.75 99.938 243.145C100.06 242.686 100.273 242.256 100.566 241.883C100.859 241.509 101.225 241.199 101.642 240.971C102.486 240.523 103.433 240.305 104.388 240.34C106.681 240.371 108.852 241.458 111.142 241.567C111.782 241.626 112.427 241.518 113.013 241.254C113.326 241.097 113.602 240.869 113.909 240.695C114.4 240.457 114.918 240.282 115.452 240.173C116.954 239.8 118.428 239.324 119.865 238.749C120.274 238.589 120.751 238.299 120.696 237.863C120.625 237.284 119.715 237.216 119.477 236.684C119.434 236.588 119.415 236.484 119.42 236.379C119.425 236.275 119.453 236.173 119.504 236.081C119.633 236.105 119.77 236.132 119.913 236.166C122.39 236.735 123.739 236.96 124.537 239.022Z" fill="black"/>
<path d="M115.112 260.843C111.875 262.322 104.549 260.843 104.549 260.843L101.465 260.662C97.4716 260.407 90.7452 259.981 88.3702 259.78C84.9047 259.494 85.7566 258.076 85.7566 258.076V249.486L102.566 245.227C102.566 245.227 109.21 247.499 111.03 249.486C112.758 251.377 113.756 249.922 116.853 250.467C117.007 250.495 117.167 250.529 117.334 250.566C120.261 251.248 121.849 251.503 122.786 253.929C122.976 254.439 123.127 254.961 123.239 255.493C124.084 259.398 118.349 259.368 115.112 260.843Z" fill="#A36468"/>
<path opacity="0.1" d="M122.779 253.929C122.177 254.305 121.544 254.63 120.888 254.9C118.683 255.906 116.584 257.132 114.356 258.083C112.127 259.034 109.725 259.708 107.309 259.531C106.048 259.439 104.757 259.122 103.561 259.49C102.811 259.782 102.106 260.177 101.465 260.663C97.4716 260.407 90.7452 259.981 88.3702 259.78C84.9047 259.494 85.7566 258.076 85.7566 258.076V257.074C85.8977 257.051 86.0399 257.036 86.1825 257.027C87.0127 257.012 87.8395 257.135 88.6291 257.391L93.8392 258.795C93.9843 258.254 94.2384 257.748 94.5858 257.308C94.9332 256.868 95.3667 256.503 95.8598 256.236C96.853 255.707 97.9689 255.45 99.0935 255.493C101.792 255.531 104.344 256.809 107.04 256.938C107.79 257.007 108.546 256.881 109.234 256.574C109.606 256.386 109.916 256.117 110.291 255.916C110.867 255.634 111.477 255.428 112.107 255.303C113.864 254.859 115.59 254.299 117.273 253.626C117.753 253.435 118.315 253.095 118.25 252.583C118.165 251.902 117.095 251.82 116.812 251.193C116.765 251.08 116.743 250.958 116.749 250.835C116.755 250.712 116.788 250.592 116.847 250.484C117 250.512 117.16 250.546 117.327 250.583C120.254 251.237 121.842 251.503 122.779 253.929Z" fill="black"/>
<path d="M107.785 201.897L106.876 223.307C106.876 223.307 105.513 227.679 106.252 228.929C106.992 230.18 108.239 231.427 107.785 232.166C107.332 232.906 101.88 240.9 100.119 237.833C98.357 234.766 96.6191 221.477 96.6191 221.477L98.2445 205.063L107.785 201.897Z" fill="#444053"/>
<path d="M111.732 148.557L114.261 151.937V181.337C114.261 181.337 115 189.174 114.261 190.793C113.521 192.411 109.773 195.648 109.773 195.648L106.621 179.463L107.303 162.34L111.732 148.557Z" fill="#444053"/>
<path opacity="0.1" d="M107.785 201.897L106.876 223.307C106.876 223.307 105.513 227.679 106.252 228.929C106.992 230.18 108.239 231.427 107.785 232.166C107.332 232.906 101.88 240.9 100.119 237.833C98.357 234.766 96.6191 221.477 96.6191 221.477L98.2445 205.063L107.785 201.897Z" fill="black"/>
<path opacity="0.1" d="M111.732 148.557L114.261 151.937V181.337C114.261 181.337 115 189.174 114.261 190.793C113.521 192.411 109.773 195.648 109.773 195.648L106.621 179.463L107.303 162.34L111.732 148.557Z" fill="black"/>
<path d="M114.259 136.017V151.92L111.421 164.299C111.421 164.299 110.511 194.173 111.305 197.805C112.099 201.437 108.579 204.848 108.579 204.848C108.579 204.848 106.534 205.076 106.534 206.664C106.534 208.252 103.127 212.798 103.127 212.798L103.239 221.657C103.239 221.657 104.718 238.242 102.445 241.421C100.173 244.6 103.239 245.057 103.239 245.057C100.401 254.369 86.7708 252.212 85.5407 251.19C84.3106 250.168 85.5407 230.064 85.5407 230.064C85.5407 230.064 88.587 199.396 90.9723 198.033C93.3575 196.67 91.0881 194.966 91.8821 192.922C92.676 190.877 91.0881 185.313 91.0881 185.313C91.0881 185.313 90.4066 178.723 88.7029 175.544C86.9991 172.365 87.224 163.618 87.224 163.618C87.224 163.618 82.4536 157.256 81.036 154.758C79.6185 152.26 78.7053 145.786 79.0461 140.9C79.2778 137.598 81.0122 132.79 82.1128 130.023C82.641 128.698 83.0226 127.839 83.0226 127.839L83.3463 127.924L101.958 132.797L114.259 136.017Z" fill="#444053"/>
<path opacity="0.1" d="M115.991 60.0303C114.233 60.5346 112.553 62.2656 111.091 64.368H110.709C108.567 64.3695 106.462 63.8054 104.607 62.7326C102.752 61.6598 101.213 60.1164 100.146 58.2584C99.7002 57.4885 99.3413 56.6713 99.0762 55.822C100.129 53.1472 100.909 50.8232 100.909 50.8232C100.909 50.8232 121.358 58.4969 115.991 60.0303Z" fill="black"/>
<path d="M122.891 51.5113C122.894 53.3757 122.469 55.216 121.649 56.8903C120.828 58.5646 119.635 60.0283 118.16 61.1687C116.685 62.309 114.968 63.0955 113.141 63.4677C111.314 63.8398 109.426 63.7876 107.622 63.3152C105.819 62.8427 104.147 61.9625 102.738 60.7425C101.328 59.5224 100.217 57.995 99.4903 56.278C98.7638 54.5609 98.4411 52.7 98.547 50.8386C98.653 48.9771 99.1849 47.1649 100.102 45.5413C100.471 44.8817 100.902 44.2587 101.39 43.6809C102.193 42.7235 103.138 41.894 104.191 41.2206C105.969 40.0904 108.01 39.4409 110.115 39.3356C112.22 39.2302 114.316 39.6726 116.198 40.6195C118.081 41.5664 119.685 42.9855 120.856 44.7381C122.026 46.4907 122.721 48.5168 122.874 50.6185C122.881 50.9184 122.891 51.2148 122.891 51.5113Z" fill="#EFB7B9"/>
<path opacity="0.1" d="M112.654 80.6721L112.613 81.0469L106.947 72.1874C106.354 73.5879 106.023 74.5249 106.023 74.5249C106.023 74.5249 92.5636 64.3911 94.6933 63.7096C95.4089 63.4813 96.3494 61.9479 97.2796 60.0158L97.3955 59.7705C98.3836 62.7146 104.125 68.5993 106.514 70.9573C106.79 71.2299 107.018 71.4548 107.195 71.6184L107.56 71.9591L107.751 72.1499C108.62 73.0461 112.286 76.9988 112.654 80.6721Z" fill="black"/>
<path d="M116.89 110.733L116.27 130.691L116.161 134.245C116.161 134.245 108.815 133.564 101.959 132.814C96.4387 132.211 91.2354 131.56 90.4347 131.178C89.4124 130.698 87.2214 130.326 85.4938 130.091C84.1581 129.911 83.1085 129.815 83.1085 129.815C83.1085 129.815 82.7167 129.931 82.1136 130.04C80.7983 130.279 78.488 130.473 77.142 129.304C75.4212 127.808 79.943 122.373 81.0709 121.068L81.3196 120.785L80.8937 116.85L79.7862 106.644C79.7862 106.644 79.1047 100.766 78.0825 97.6145C77.8092 96.7183 77.612 95.8008 77.493 94.8715C77.1132 91.9927 77.3077 89.0672 78.0655 86.2641C78.3892 85.073 78.5946 83.8529 78.6788 82.6215C78.8492 79.4696 88.4753 67.2878 90.8606 66.1804C91.9336 65.68 92.797 64.819 93.3004 63.7474C93.4665 63.4105 93.5913 63.0546 93.6718 62.6877C94.694 58.2579 97.2803 60.0162 97.2803 60.0162C97.9039 63.4816 107.557 72.6546 107.557 72.6546L107.748 72.8454C108.706 73.8268 112.972 78.4337 112.669 82.366C112.608 83.8295 112.826 85.2912 113.313 86.673C115.276 92.8558 116.405 99.2733 116.669 105.755L116.89 110.733Z" fill="#DCE6F2"/>
<path opacity="0.1" d="M103.213 87.0342C103.213 87.0342 100.828 92.8269 99.0389 93.764C97.25 94.701 104.065 95.7403 103.213 87.0342Z" fill="black"/>
<path opacity="0.1" d="M105.003 97.8525C105.003 97.8525 99.5508 98.534 99.5508 99.5563C99.5508 100.579 105.003 97.8525 105.003 97.8525Z" fill="black"/>
<path opacity="0.1" d="M110.71 104.498C110.71 104.498 102.787 121.365 100.572 121.876C98.3576 122.387 110.71 104.498 110.71 104.498Z" fill="black"/>
<path opacity="0.1" d="M107.407 73.5095L100.854 76.3581L92.9453 64.4115C93.1115 64.0745 93.2362 63.7187 93.3167 63.3518C94.339 58.922 96.9253 60.6803 96.9253 60.6803C97.5488 64.1457 107.202 73.3187 107.202 73.3187L107.407 73.5095Z" fill="black"/>
<path d="M107.749 72.8288L101.196 75.6775L93.2871 63.7308C93.4533 63.3939 93.578 63.038 93.6585 62.6711C94.6808 58.2413 97.2671 59.9996 97.2671 59.9996C97.8906 63.465 107.544 72.638 107.544 72.638L107.749 72.8288Z" fill="#DCE6F2"/>
<path opacity="0.1" d="M116.162 134.245C116.162 134.245 108.815 133.564 101.959 132.814L114.26 136.034V139.782C113.722 140.27 113.255 140.522 112.952 140.392C111.534 139.796 99.9658 137.922 99.9658 137.922C99.9658 137.922 93.2462 134.514 85.9951 130.425C85.8191 130.328 85.6484 130.221 85.4839 130.105C84.6385 129.531 83.9099 128.801 83.3372 127.955C81.9981 126.016 81.3438 123.525 81.061 121.082C80.902 119.682 80.8428 118.272 80.8838 116.864C80.9189 115.266 81.0647 113.674 81.32 112.096C80.6187 105.988 80.2774 99.8442 80.2977 93.696C80.3829 84.155 89.3276 80.7475 89.3276 80.7475C105.769 79.2993 100.671 105.878 100.671 105.878C100.671 105.878 99.7204 113.374 99.4615 114.141C99.2025 114.908 98.2723 116.185 98.3983 117.974C98.5244 119.763 101.666 121.903 101.666 121.903C101.666 121.903 104.733 123.341 105.997 125.471C106.917 127.042 112.894 129.171 116.271 130.691L116.162 134.245Z" fill="black"/>
<path opacity="0.1" d="M121.668 43.9462C121.675 44.5075 121.558 45.0633 121.328 45.575C121.153 45.9925 120.95 46.3978 120.721 46.7881C120.362 47.506 119.853 48.1382 119.229 48.6418C118.441 49.204 117.446 49.3607 116.503 49.589C115.559 49.8173 114.577 50.1819 114.039 50.9861C113.747 51.5031 113.552 52.0689 113.463 52.6558C113.373 53.2422 113.139 53.7971 112.782 54.2709C112.596 54.5023 112.338 54.6653 112.049 54.7344C111.761 54.8034 111.457 54.7747 111.187 54.6526C110.902 54.4605 110.686 54.1823 110.57 53.8586C110.182 52.9829 110.083 52.0118 109.926 51.0679C109.769 50.124 109.548 49.1529 108.969 48.393C108.389 47.6331 107.364 47.1322 106.454 47.4287C106.149 47.5459 105.872 47.7235 105.637 47.9506C105.403 48.1778 105.217 48.45 105.091 48.7508C104.839 49.353 104.666 49.9852 104.576 50.6317C104.154 52.9443 103.655 55.2432 103.08 57.5285C103.063 57.6222 103.024 57.7107 102.968 57.7875C102.877 57.8778 102.755 57.9291 102.627 57.9306C101.864 58.0328 101.131 57.4978 100.361 57.5558C100.282 57.561 100.203 57.5736 100.126 57.5932C98.881 55.4294 98.3313 52.935 98.5513 50.4482C98.7713 47.9614 99.7505 45.6023 101.356 43.6907L101.418 43.6736C101.93 43.4918 102.395 43.1985 102.781 42.8149C103.272 42.3227 103.728 41.7954 104.144 41.2373L104.416 40.8965C105.199 39.953 106.092 39.1054 107.074 38.3716C107.342 38.1519 107.65 37.9853 107.98 37.8809C108.263 37.8258 108.553 37.8166 108.839 37.8536C110.016 37.9949 111.202 38.0393 112.386 37.9865C113.211 37.8568 114.043 37.7727 114.877 37.7344C117.034 37.7957 118.874 39.3189 120.237 40.9885C120.97 41.8438 121.624 42.8286 121.668 43.9462Z" fill="black"/>
<path d="M98.5099 45.8651C98.0362 46.642 97.181 47.1702 96.8607 48.022C96.3904 49.259 97.1844 50.7992 96.4552 51.9032C96.2132 52.2746 95.8146 52.5506 95.6783 52.9765C95.4465 53.6955 96.0803 54.4622 95.9168 55.2016C95.7532 55.9411 94.7787 56.5646 95.0377 57.287C95.1907 57.6021 95.4591 57.8461 95.7873 57.9685C96.3036 58.2647 96.8979 58.3966 97.491 58.3467C98.4213 58.1934 99.113 57.2802 100.057 57.212C100.824 57.1575 101.556 57.6891 102.319 57.5903C102.447 57.5858 102.569 57.5335 102.66 57.4438C102.718 57.3678 102.757 57.2789 102.773 57.1848C103.345 54.9018 103.845 52.6028 104.272 50.288C104.359 49.6413 104.531 49.0089 104.783 48.4071C104.911 48.1069 105.097 47.8353 105.331 47.6082C105.565 47.3811 105.842 47.2032 106.146 47.085C107.056 46.7919 108.078 47.2894 108.661 48.0493C109.243 48.8092 109.465 49.7803 109.622 50.7242C109.778 51.6681 109.877 52.6392 110.262 53.5149C110.379 53.8397 110.597 54.1189 110.882 54.3123C111.394 54.6087 112.082 54.3736 112.474 53.9306C112.833 53.4566 113.067 52.9001 113.155 52.3121C113.244 51.7262 113.439 51.1615 113.731 50.6458C114.27 49.8416 115.254 49.477 116.195 49.2487C117.135 49.0204 118.127 48.8603 118.921 48.2981C119.545 47.795 120.054 47.1641 120.413 46.4478C120.918 45.5686 121.388 44.6146 121.347 43.6025C121.303 42.4985 120.648 41.5137 119.95 40.655C118.587 38.9854 116.743 37.4622 114.586 37.4043C113.752 37.4392 112.92 37.5234 112.096 37.6564C110.911 37.7097 109.725 37.6641 108.548 37.5202C108.262 37.4859 107.973 37.4963 107.69 37.5508C107.359 37.6519 107.052 37.8188 106.787 38.0415C105.803 38.7741 104.91 39.6205 104.125 40.563C103.62 41.2338 103.071 41.8712 102.483 42.4712C102.098 42.8554 101.632 43.1498 101.12 43.3333C100.779 43.4287 100.439 43.3606 100.115 43.4662C99.1096 43.7831 98.9767 45.095 98.5099 45.8651Z" fill="#965D7B"/>
<path opacity="0.1" d="M131.325 55.1296C128.599 55.6305 126.34 53.4259 125.089 51.8175C124.705 51.3291 124.355 50.8144 124.043 50.2773L133.4 52.0424L133.778 52.114C133.778 52.114 135.499 54.3663 131.325 55.1296Z" fill="black"/>
<g opacity="0.1">
<path opacity="0.1" d="M95.9173 54.2264C95.9555 53.7808 95.8878 53.3325 95.7197 52.918C95.7197 52.952 95.689 52.9861 95.6788 53.0202C95.5323 53.4768 95.7299 53.9504 95.856 54.4241C95.8831 54.3604 95.9036 54.2942 95.9173 54.2264Z" fill="black"/>
<path opacity="0.1" d="M96.7279 48.6484C96.6928 49.1196 96.702 49.5931 96.7552 50.0625C96.7901 49.5914 96.781 49.1179 96.7279 48.6484Z" fill="black"/>
<path opacity="0.1" d="M120.394 45.4625C120.035 46.1804 119.526 46.8126 118.901 47.3162C118.114 47.8784 117.123 48.0351 116.175 48.2634C115.228 48.4917 114.25 48.8563 113.712 49.6605C113.42 50.1777 113.225 50.7434 113.136 51.3302C113.047 51.9181 112.813 52.4744 112.454 52.9487C112.062 53.3917 111.374 53.6302 110.863 53.3304C110.577 53.137 110.36 52.8578 110.243 52.533C109.858 51.6573 109.756 50.6896 109.602 49.7423C109.449 48.795 109.221 47.8273 108.641 47.0674C108.062 46.3075 107.036 45.8066 106.127 46.1031C105.822 46.2208 105.545 46.3986 105.311 46.6257C105.077 46.8528 104.891 47.1247 104.764 47.4252C104.511 48.027 104.339 48.6594 104.252 49.3061C103.828 51.621 103.328 53.9199 102.753 56.2029C102.737 56.2971 102.699 56.3859 102.641 56.4619C102.55 56.5516 102.428 56.6039 102.3 56.6084C101.537 56.7072 100.804 56.1756 100.037 56.2302C99.0935 56.2983 98.4018 57.2115 97.4716 57.3614C96.8782 57.4147 96.2829 57.2825 95.7678 56.9832C95.531 56.8813 95.3184 56.7303 95.1443 56.5402C95.0645 56.6544 95.0117 56.7852 94.9899 56.9227C94.9681 57.0602 94.9777 57.2009 95.0182 57.3342C95.1683 57.6514 95.4377 57.8964 95.7678 58.0157C96.2829 58.315 96.8782 58.4471 97.4716 58.3939C98.4018 58.244 99.0935 57.3308 100.037 57.2626C100.804 57.2081 101.537 57.7397 102.3 57.6409C102.428 57.6364 102.55 57.5841 102.641 57.4943C102.699 57.4184 102.737 57.3295 102.753 57.2354C103.326 54.9637 103.825 52.6648 104.252 50.3386C104.339 49.6919 104.511 49.0595 104.764 48.4577C104.891 48.1572 105.077 47.8853 105.311 47.6581C105.545 47.431 105.822 47.2533 106.127 47.1356C107.036 46.8391 108.059 47.34 108.641 48.0999C109.224 48.8598 109.445 49.8309 109.602 50.7748C109.759 51.7186 109.858 52.6898 110.243 53.5655C110.36 53.8903 110.577 54.1695 110.863 54.3629C111.374 54.6593 112.062 54.4242 112.454 53.9812C112.813 53.5069 113.047 52.9505 113.136 52.3627C113.225 51.7759 113.42 51.2102 113.712 50.693C114.25 49.8888 115.235 49.5276 116.175 49.2959C117.116 49.0642 118.107 48.9109 118.901 48.3486C119.526 47.8451 120.035 47.2128 120.394 46.4949C120.898 45.6192 121.368 44.6651 121.327 43.6531C121.321 43.523 121.307 43.3933 121.287 43.2646C121.122 44.0446 120.82 44.7888 120.394 45.4625Z" fill="black"/>
</g>
<path opacity="0.1" d="M121.341 45.5653C122.215 47.119 122.733 48.8473 122.857 50.6255C119.821 48.9217 116.966 47.051 115.524 46.4002C113.013 45.2655 103.622 45.4358 100.092 45.5415C100.461 44.8818 100.892 44.2588 101.38 43.681C102.186 42.7229 103.134 41.8933 104.191 41.2208C105.59 40.3327 107.156 39.7394 108.792 39.477C110.429 39.2146 112.101 39.2887 113.708 39.6947C115.315 40.1007 116.822 40.8301 118.137 41.8383C119.453 42.8465 120.548 44.1124 121.358 45.5585L121.341 45.5653Z" fill="black"/>
<path opacity="0.1" d="M132.177 53.6848C130.538 54.1891 127.863 53.2146 125.089 51.8175C124.705 51.3291 124.355 50.8144 124.043 50.2773L133.4 52.0424C134.02 52.465 134.177 53.0681 132.177 53.6848Z" fill="black"/>
<path d="M111.435 33.7508C111.435 33.7508 102.49 33.2397 99.9752 38.0954L99.5697 42.399L98.8883 42.3241L98.752 45.2511C98.752 45.2511 112.423 44.6548 115.534 46.0587C118.645 47.4626 128.312 54.5365 132.186 53.3439C136.061 52.1513 131.846 51.0438 131.846 51.0438C131.846 51.0438 126.513 48.7847 126.513 47.0128C126.513 45.2409 125.191 35.8805 111.435 33.7508Z" fill="#444053"/>
<path opacity="0.1" d="M94.1836 193.29C94.1836 193.29 99.8911 198.827 102.362 198.401C102.362 198.401 95.3762 197.805 94.1836 193.29Z" fill="black"/>
<path opacity="0.1" d="M92.9902 195.855C92.9902 195.855 93.5014 198.704 94.8644 198.425C96.2274 198.145 92.9902 195.855 92.9902 195.855Z" fill="black"/>
<path opacity="0.1" d="M101.935 243.466C101.935 243.466 93.8318 249.77 95.1982 249.94C96.5646 250.11 101.935 243.466 101.935 243.466Z" fill="black"/>
<path d="M112.773 118.353L139.011 114.083V138.924L114.082 137.619L112.773 118.353Z" fill="#7A86FF"/>
<path opacity="0.05" d="M112.773 118.353L139.011 114.083V138.924L114.082 137.619L112.773 118.353Z" fill="black"/>
<path d="M139.012 114.083L170.477 116.438L168.735 138.055L139.012 138.924V114.083Z" fill="#7A86FF"/>
<path opacity="0.1" d="M139.012 114.083L170.477 116.438L168.735 138.055L139.012 138.924V114.083Z" fill="black"/>
<path d="M148.686 106.501L139.012 114.083L170.477 116.437L175.618 108.678L148.686 106.501Z" fill="#7A86FF"/>
<path d="M103.273 110.072L126.894 107.196L139.011 114.083L112.774 118.352L103.273 110.072Z" fill="#7A86FF"/>
<path d="M144.763 120.533V154.496L132.472 153.235L127.126 152.69L125.497 152.519L120.154 151.971L112.773 151.214V118.353L139.008 120.138L144.763 120.533Z" fill="#7A86FF"/>
<path d="M170.477 116.438V149.558L160.626 151.449L155.835 152.37L144.764 154.496V120.533L170.477 116.438Z" fill="#7A86FF"/>
<path opacity="0.05" d="M170.477 116.438V149.558L160.626 151.449L155.835 152.37L144.764 154.496V120.533L170.477 116.438Z" fill="black"/>
<path d="M103.273 125.501L112.774 118.353L144.763 120.533L140.054 128.466L103.273 125.501Z" fill="#7A86FF"/>
<path opacity="0.1" d="M103.273 125.501L112.774 118.353L144.763 120.533L140.054 128.466L103.273 125.501Z" fill="white"/>
<path d="M170.477 116.438L144.764 120.533L153.132 128.03L180.675 123.409L170.477 116.438Z" fill="#7A86FF"/>
<path opacity="0.1" d="M170.477 116.438L144.764 120.533L153.132 128.03L180.675 123.409L170.477 116.438Z" fill="white"/>
<path opacity="0.1" d="M160.625 151.45L155.834 152.37V145.292L160.322 144.161L160.625 151.45Z" fill="white"/>
<path opacity="0.1" d="M132.473 148.553V153.235L127.127 152.689V148.553H132.473Z" fill="white"/>
<path opacity="0.1" d="M125.497 150.028V152.519L120.154 151.971V150.028H125.497Z" fill="white"/>
<path opacity="0.1" d="M141.547 146.069C137.884 150.755 125.787 147.518 125.787 147.518L116.798 138.14L115.578 136.869L117.963 132.439C117.963 132.439 118.645 132.664 119.783 133.06C125.807 135.165 144.63 142.127 141.547 146.069Z" fill="black"/>
<path d="M141.207 145.388C137.544 150.073 125.447 146.836 125.447 146.836L116.458 137.459L115.238 136.188L117.624 131.758C117.624 131.758 118.305 131.983 119.443 132.378C125.468 134.484 144.291 141.445 141.207 145.388Z" fill="#EFB7B9"/>
<path opacity="0.1" d="M119.429 132.378C118.932 133.809 117.668 135.929 116.444 137.459L115.225 136.188L117.61 131.758C117.61 131.758 118.295 131.983 119.429 132.378Z" fill="black"/>
<path d="M89.6674 79.3846C89.6674 79.3846 80.7228 82.7921 80.6376 92.333C80.6172 98.4813 80.9586 104.625 81.6598 110.733C81.6598 110.733 79.1042 124.96 86.3451 129.049C93.586 133.138 100.316 136.545 100.316 136.545C100.316 136.545 111.884 138.419 113.305 139.016C114.726 139.612 119.664 131.945 118.897 130.667C118.13 129.39 107.598 126.238 106.347 124.108C105.097 121.978 102.016 120.544 102.016 120.544C102.016 120.544 98.8745 118.4 98.7484 116.611C98.6223 114.822 99.5492 113.545 99.8115 112.778C100.074 112.011 101.025 104.515 101.025 104.515C101.025 104.515 106.109 77.9193 89.6674 79.3846Z" fill="#DCE6F2"/>
<path opacity="0.1" d="M93.7562 110.972C93.7562 110.972 81.6596 112.335 82.5967 116.594C82.5967 116.594 87.1934 112.297 93.7562 110.972Z" fill="black"/>
<path opacity="0.1" d="M93.7579 112.676C93.7579 112.676 86.8918 117.702 88.1526 118.043C89.4134 118.383 93.7579 112.676 93.7579 112.676Z" fill="black"/>
<path opacity="0.1" d="M96.8238 114.72C96.8238 114.72 94.8645 118.243 95.9719 118.059C97.0794 117.875 96.8238 114.72 96.8238 114.72Z" fill="black"/>
<path d="M222.771 38.297C222.771 38.297 209.823 37.5167 211.336 46.6011C211.336 46.6011 211.033 48.206 212.488 48.9352C212.488 48.9352 212.511 48.2537 213.816 48.4889C214.281 48.5671 214.754 48.59 215.224 48.557C215.861 48.5145 216.467 48.2644 216.948 47.8448C216.948 47.8448 220.591 46.3421 222.008 40.3858C222.008 40.3858 223.058 39.0842 223.03 38.7502L220.843 39.6873C220.843 39.6873 221.589 41.265 220.999 42.5769C220.999 42.5769 220.931 39.7452 220.509 39.81C220.424 39.81 219.374 40.3586 219.374 40.3586C219.374 40.3586 220.659 43.105 219.688 45.1052C219.688 45.1052 220.056 41.7182 218.972 40.5562L217.432 41.4558C217.432 41.4558 218.935 44.2942 217.916 46.6113C217.916 46.6113 218.178 43.0573 217.108 41.6739L215.711 42.7609C215.711 42.7609 217.125 45.5618 216.263 47.4836C216.263 47.4836 216.151 43.347 215.408 43.0335C215.408 43.0335 214.188 44.1102 214.004 44.5532C214.004 44.5532 214.968 46.5977 214.369 47.6574C214.369 47.6574 214.001 44.9008 213.687 44.8871C213.687 44.8871 212.471 46.7136 212.344 47.9539C212.403 46.7975 212.764 45.6768 213.391 44.7031C212.689 44.8358 212.043 45.171 211.53 45.6675C211.53 45.6675 211.717 44.376 213.69 44.2636C213.69 44.2636 214.713 42.8767 214.965 42.7915C214.965 42.7915 213.002 42.628 211.813 43.1561C211.813 43.1561 212.859 41.9397 215.326 42.4746L216.689 41.3502C216.689 41.3502 214.106 41.0094 213.009 41.3876C213.009 41.3876 214.27 40.3109 217.06 41.0946L218.56 40.1984C218.56 40.1984 216.358 39.7214 215.047 39.8952C215.047 39.8952 216.43 39.1489 218.999 39.9565L220.073 39.476C220.073 39.476 218.458 39.1591 217.987 39.108C217.517 39.0569 217.49 38.9274 217.49 38.9274C218.512 38.7574 219.561 38.8754 220.519 39.2682C220.519 39.2682 222.819 38.4402 222.771 38.297Z" fill="#7A86FF"/>
<path opacity="0.1" d="M262.115 83.7326C262.115 83.7326 249.167 82.9523 250.68 92.0367C250.68 92.0367 250.376 93.6416 251.831 94.3708C251.831 94.3708 251.855 93.6893 253.164 93.9244C253.628 94.0026 254.101 94.0255 254.571 93.9925C255.201 93.9469 255.798 93.6982 256.275 93.2838C256.275 93.2838 259.921 91.7777 261.338 85.8214C261.338 85.8214 262.384 84.5231 262.343 84.1892L260.156 85.1228C260.156 85.1228 260.902 86.7005 260.316 88.0124C260.316 88.0124 260.244 85.1808 259.825 85.2455C259.74 85.2455 258.687 85.7941 258.687 85.7941C258.687 85.7941 259.975 88.544 259.004 90.5408C259.004 90.5408 259.372 87.1537 258.285 85.9918L256.762 86.8811C256.762 86.8811 258.265 89.7196 257.246 92.0367C257.246 92.0367 257.508 88.4826 256.438 87.0992L255.045 88.1896C255.045 88.1896 256.455 90.9871 255.597 92.909C255.597 92.909 255.484 88.7723 254.741 88.4588C254.741 88.4588 253.521 89.5355 253.334 89.9785C253.334 89.9785 254.302 92.023 253.702 93.0828C253.702 93.0828 253.334 90.3261 253.021 90.3125C253.021 90.3125 251.804 92.1389 251.678 93.3792C251.739 92.2227 252.101 91.1022 252.727 90.1285C252.025 90.2614 251.378 90.5966 250.864 91.0928C250.864 91.0928 251.054 89.8013 253.027 89.6889C253.027 89.6889 254.033 88.302 254.302 88.2169C254.302 88.2169 252.339 88.0533 251.15 88.5814C251.15 88.5814 252.196 87.365 254.66 87.917L256.023 86.7925C256.023 86.7925 253.436 86.4518 252.342 86.83C252.342 86.83 253.603 85.7532 256.394 86.537L257.893 85.6408C257.893 85.6408 255.689 85.1671 254.377 85.3375C254.377 85.3375 255.764 84.5913 258.333 85.3989L259.406 84.9184C259.406 84.9184 257.791 84.6015 257.317 84.5504C256.844 84.4993 256.82 84.3698 256.82 84.3698C257.843 84.1996 258.893 84.3176 259.853 84.7105C259.853 84.7105 262.156 83.8757 262.115 83.7326Z" fill="#7A86FF"/>
<path opacity="0.1" d="M183.453 75.6667C183.453 75.6667 186.435 63.0283 177.221 62.984C177.221 62.984 175.691 62.4116 174.726 63.7201C174.726 63.7201 175.384 63.8598 174.938 65.1069C174.783 65.5479 174.68 66.0053 174.631 66.4699C174.565 67.1033 174.707 67.7409 175.036 68.2861C175.036 68.2861 175.899 72.1366 181.511 74.5491C181.511 74.5491 182.615 75.803 182.949 75.8167L182.404 73.503C182.404 73.503 180.72 73.9698 179.528 73.1622C179.528 73.1622 182.332 73.5745 182.335 73.1622C182.335 73.077 181.995 71.9492 181.995 71.9492C181.995 71.9492 179.068 72.7465 177.262 71.4483C177.262 71.4483 180.536 72.3887 181.869 71.5198L181.255 69.8433C181.255 69.8433 178.188 70.8417 176.089 69.4412C176.089 69.4412 179.548 70.3067 181.095 69.4889L180.26 67.9283C180.26 67.9283 177.262 68.8415 175.514 67.6659C175.514 67.6659 179.603 68.2588 180.046 67.5842C180.046 67.5842 179.194 66.1973 178.788 65.9383C178.788 65.9383 176.621 66.5449 175.667 65.7714C175.667 65.7714 178.444 65.877 178.509 65.584C178.509 65.584 176.917 64.0744 175.704 63.7337C176.835 63.9911 177.879 64.5383 178.734 65.3216C178.721 64.6074 178.501 63.9124 178.1 63.3214C178.1 63.3214 179.34 63.7303 179.122 65.7066C179.122 65.7066 180.315 66.9333 180.352 67.2127C180.352 67.2127 180.846 65.308 180.529 64.0438C180.529 64.0438 181.552 65.2841 180.587 67.6182L181.46 69.1686C181.46 69.1686 182.25 66.6812 182.049 65.5363C182.049 65.5363 182.898 66.9606 181.647 69.5775L182.277 71.2097C182.277 71.2097 183.119 69.1175 183.174 67.8022C183.174 67.8022 183.674 69.2947 182.438 71.6902L182.731 72.8283C182.731 72.8283 183.317 71.2915 183.446 70.8349C183.576 70.3783 183.709 70.3749 183.709 70.3749C183.703 71.4116 183.41 72.4263 182.86 73.3053C182.86 73.3053 183.306 75.6838 183.453 75.6667Z" fill="#7A86FF"/>
<path opacity="0.1" d="M155.095 79.9735C155.095 79.9735 144.695 72.1942 140.978 80.621C140.978 80.621 139.843 81.7965 140.657 83.2038C140.657 83.2038 141.046 82.6552 142.02 83.565C142.366 83.8862 142.748 84.1652 143.159 84.3965C143.715 84.7063 144.358 84.826 144.988 84.7372C144.988 84.7372 148.859 85.4834 153.316 81.2888C153.316 81.2888 154.908 80.7777 155.058 80.4778L152.71 80.0655C152.71 80.0655 152.464 81.7931 151.255 82.5666C151.255 82.5666 152.751 80.1609 152.362 79.9872C152.284 79.9497 151.112 79.8168 151.112 79.8168C151.112 79.8168 150.676 82.8222 148.767 83.9569C148.767 83.9569 150.938 81.3297 150.669 79.7623L148.887 79.6669C148.887 79.6669 148.583 82.8665 146.457 84.2431C146.457 84.2431 148.628 81.4183 148.502 79.6737L146.736 79.8168C146.736 79.8168 146.379 82.9278 144.603 84.0591C144.603 84.0591 146.781 80.5426 146.334 79.8747C146.334 79.8747 144.723 80.103 144.324 80.3688C144.324 80.3688 144.014 82.5973 142.923 83.1629C142.923 83.1629 144.133 80.6584 143.888 80.4847C143.888 80.4847 141.867 81.3399 141.073 82.3145C141.76 81.3814 142.679 80.6438 143.738 80.1746C143.079 79.9006 142.354 79.8248 141.652 79.9565C141.652 79.9565 142.518 78.982 144.229 79.9735C144.229 79.9735 145.83 79.3704 146.103 79.4454C146.103 79.4454 144.552 78.2289 143.268 78.0176C143.268 78.0176 144.815 77.5747 146.569 79.3806L148.338 79.2C148.338 79.2 146.372 77.4963 145.244 77.2101C145.244 77.2101 146.89 77.0022 148.788 79.1898L150.532 79.2682C150.532 79.2682 148.955 77.6598 147.766 77.0806C147.766 77.0806 149.33 77.2169 151.033 79.3057L152.195 79.4931C152.195 79.4931 151.02 78.3413 150.652 78.0415C150.284 77.7416 150.335 77.6155 150.335 77.6155C151.283 78.0353 152.096 78.7101 152.683 79.5646C152.683 79.5646 155.051 80.1132 155.095 79.9735Z" fill="#7A86FF"/>
<path opacity="0.1" d="M189.718 7.6977C189.718 7.6977 179.318 -0.0850139 175.601 8.34512C175.601 8.34512 174.466 9.52071 175.281 10.928C175.281 10.928 175.669 10.3794 176.644 11.2892C176.991 11.6087 177.374 11.8866 177.785 12.1172C178.341 12.4273 178.984 12.547 179.615 12.458C179.615 12.458 183.486 13.2042 187.943 9.00618C187.943 9.00618 189.534 8.49846 189.681 8.19519L187.333 7.7897C187.333 7.7897 187.091 9.5173 185.878 10.2908C185.878 10.2908 187.377 7.88511 186.989 7.71133C186.91 7.67385 185.738 7.54096 185.738 7.54096C185.738 7.54096 185.288 10.5532 183.38 11.6811C183.38 11.6811 185.547 9.05388 185.282 7.48644L183.499 7.39103C183.499 7.39103 183.193 10.5907 181.07 11.9639C181.07 11.9639 183.24 9.13907 183.114 7.39443L181.353 7.53755C181.353 7.53755 180.991 10.652 179.216 11.7833C179.216 11.7833 181.397 8.26675 180.951 7.59888C180.951 7.59888 179.339 7.82718 178.94 8.09297C178.94 8.09297 178.63 10.3215 177.54 10.8871C177.54 10.8871 178.749 8.38261 178.504 8.20542C178.504 8.20542 176.483 9.0641 175.689 10.0386C176.375 9.10455 177.294 8.3667 178.354 7.89874C177.694 7.62275 176.968 7.54691 176.265 7.68066C176.265 7.68066 177.134 6.70612 178.845 7.6977C178.845 7.6977 180.446 7.09117 180.719 7.16954C180.719 7.16954 179.168 5.95306 177.884 5.73839C177.884 5.73839 179.427 5.29883 181.182 7.10139L182.951 6.92079C182.951 6.92079 180.988 5.21704 179.857 4.92741C179.857 4.92741 181.503 4.72296 183.404 6.91057L185.149 6.98553C185.149 6.98553 183.571 5.3772 182.378 4.80133C182.378 4.80133 183.946 4.93763 185.65 7.02642L186.808 7.21384C186.808 7.21384 185.629 6.07573 185.261 5.78269C184.893 5.48965 184.944 5.36016 184.944 5.36016C185.892 5.77948 186.705 6.45434 187.292 7.30925C187.292 7.30925 189.66 7.82719 189.718 7.6977Z" fill="#7A86FF"/>
<path opacity="0.1" d="M229.458 17.555C229.458 17.555 225.301 5.25057 217.46 10.0858C217.46 10.0858 215.858 10.4266 215.732 12.0315C215.732 12.0315 216.363 11.7998 216.642 13.0946C216.746 13.5552 216.903 14.0023 217.109 14.427C217.391 14.9985 217.85 15.4635 218.418 15.7525C218.418 15.7525 221.184 18.5636 227.236 17.6334C227.236 17.6334 228.834 18.1173 229.127 17.9503L227.424 16.2772C227.424 16.2772 226.245 17.5618 224.807 17.5107C224.807 17.5107 227.406 16.3794 227.192 16.0148C227.148 15.9433 226.258 15.1698 226.258 15.1698C226.258 15.1698 224.193 17.3949 221.978 17.2484C221.978 17.2484 225.253 16.3147 225.921 14.8631L224.51 13.7761C224.51 13.7761 222.445 16.2363 219.913 16.1614C219.913 16.1614 223.321 15.0676 224.183 13.5546L222.65 12.6721C222.65 12.6721 220.605 15.0335 218.486 14.9585C218.486 14.9585 222.275 13.2991 222.285 12.4949C222.285 12.4949 220.83 11.7691 220.35 11.7623C220.35 11.7623 218.83 13.4217 217.624 13.2718C217.624 13.2718 220.036 11.8918 219.934 11.609C219.934 11.609 217.787 11.1694 216.577 11.5238C217.672 11.1428 218.846 11.0547 219.985 11.2682C219.596 10.6681 219.041 10.1945 218.387 9.90521C218.387 9.90521 219.654 9.59513 220.503 11.3807C220.503 11.3807 222.166 11.793 222.343 12.0076C222.343 12.0076 221.757 10.1301 220.82 9.22371C220.82 9.22371 222.343 9.73824 222.759 12.2291L224.319 13.081C224.319 13.081 223.675 10.556 222.898 9.6735C222.898 9.6735 224.374 10.4368 224.694 13.3161L226.091 14.369C226.091 14.369 225.703 12.1473 225.048 10.9956C225.048 10.9956 226.262 11.9974 226.48 14.6859L227.328 15.4969C227.328 15.4969 227.015 13.8818 226.885 13.4251C226.756 12.9685 226.861 12.9379 226.861 12.9379C227.403 13.8218 227.69 14.8384 227.689 15.8751C227.689 15.8751 229.339 17.6436 229.458 17.555Z" fill="#7A86FF"/>
<path opacity="0.1" d="M202.326 18.1621C202.326 18.1621 189.412 16.7242 190.479 25.8869C190.479 25.8869 190.094 27.4748 191.501 28.2722C191.501 28.2722 191.559 27.5907 192.864 27.8973C193.325 27.9966 193.796 28.0434 194.268 28.0371C194.905 28.0255 195.521 27.8066 196.023 27.4135C196.023 27.4135 199.74 26.0948 201.475 20.2169C201.475 20.2169 202.585 18.9731 202.562 18.6358L200.33 19.4604C200.33 19.4604 201.011 21.0721 200.33 22.3534C200.33 22.3534 200.401 19.5217 199.989 19.566C199.904 19.566 198.827 20.0567 198.827 20.0567C198.827 20.0567 199.972 22.8679 198.902 24.8272C198.902 24.8272 199.44 21.4606 198.415 20.2475L196.83 21.0653C196.83 21.0653 198.193 23.9787 197.052 26.2413C197.052 26.2413 197.495 22.7043 196.496 21.2698L195.048 22.292C195.048 22.292 196.316 25.1577 195.358 27.0352C195.358 27.0352 195.457 22.8986 194.731 22.5476C194.731 22.5476 193.457 23.5698 193.249 23.9924C193.249 23.9924 194.111 26.0709 193.46 27.1102C193.46 27.1102 193.232 24.3399 192.932 24.3127C192.932 24.3127 191.624 26.0743 191.433 27.3181C191.551 26.165 191.969 25.063 192.646 24.1218C191.939 24.2196 191.276 24.5215 190.738 24.9908C190.738 24.9908 190.99 23.7129 192.966 23.6993C192.966 23.6993 194.039 22.367 194.329 22.2954C194.329 22.2954 192.377 22.0331 191.16 22.4999C191.16 22.4999 192.268 21.3345 194.701 22.0126L196.135 20.9597C196.135 20.9597 193.542 20.4349 192.445 20.7757C192.445 20.7757 193.76 19.7534 196.506 20.6905L198.05 19.8693C198.05 19.8693 195.873 19.2832 194.554 19.3888C194.554 19.3888 195.975 18.7073 198.5 19.6512L199.597 19.2253C199.597 19.2253 197.999 18.8266 197.529 18.7516C197.058 18.6767 197.041 18.5472 197.041 18.5472C198.072 18.429 199.114 18.5988 200.054 19.0379C200.054 19.0379 202.35 18.3053 202.326 18.1621Z" fill="#7A86FF"/>
<path opacity="0.1" d="M315.32 118.401C315.32 118.401 302.412 116.963 303.479 126.115C303.479 126.115 303.094 127.703 304.501 128.5C304.501 128.5 304.559 127.819 305.864 128.122C306.325 128.225 306.796 128.272 307.268 128.262C307.905 128.252 308.522 128.033 309.023 127.638C309.023 127.638 312.74 126.32 314.458 120.445C314.458 120.445 315.568 119.198 315.545 118.864L313.313 119.685C313.313 119.685 313.994 121.3 313.313 122.582C313.313 122.582 313.384 119.747 312.972 119.794C312.887 119.794 311.81 120.281 311.81 120.281C311.81 120.281 312.955 123.093 311.885 125.052C311.885 125.052 312.423 121.689 311.398 120.472L309.813 121.294C309.813 121.294 311.176 124.207 310.038 126.47C310.038 126.47 310.478 122.933 309.479 121.495L308.031 122.517C308.031 122.517 309.299 125.383 308.341 127.257C308.341 127.257 308.44 123.12 307.714 122.772C307.714 122.772 306.443 123.795 306.232 124.217C306.232 124.217 307.097 126.296 306.443 127.335C306.443 127.335 306.215 124.565 305.915 124.537C305.915 124.537 304.607 126.299 304.416 127.543C304.534 126.39 304.952 125.288 305.629 124.347C304.921 124.443 304.258 124.745 303.721 125.216C303.721 125.216 303.973 123.934 305.949 123.921C305.949 123.921 307.026 122.588 307.312 122.52C307.312 122.52 305.36 122.254 304.143 122.721C304.143 122.721 305.251 121.559 307.687 122.237L309.118 121.184C309.118 121.184 306.556 120.701 305.441 121.035C305.441 121.035 306.757 120.012 309.503 120.946L311.047 120.128C311.047 120.128 308.869 119.542 307.551 119.648C307.551 119.648 308.972 118.966 311.496 119.91L312.594 119.481C312.594 119.481 310.996 119.082 310.525 119.011C310.055 118.939 310.038 118.806 310.038 118.806C311.068 118.686 312.111 118.854 313.05 119.293C313.05 119.293 315.354 118.547 315.32 118.401Z" fill="#7A86FF"/>
<path opacity="0.1" d="M335.052 130.456C335.052 130.456 322.145 129.021 323.211 138.17C323.211 138.17 322.829 139.758 324.233 140.556C324.233 140.556 324.291 139.874 325.596 140.181C326.056 140.281 326.526 140.327 326.997 140.317C327.631 140.304 328.244 140.087 328.745 139.697C328.745 139.697 332.459 138.378 334.176 132.5C334.176 132.5 335.291 131.257 335.263 130.919L333.031 131.74C333.031 131.74 333.713 133.356 333.031 134.637C333.031 134.637 333.103 131.805 332.691 131.849C332.606 131.849 331.529 132.337 331.529 132.337C331.529 132.337 332.674 135.148 331.604 137.107C331.604 137.107 332.142 133.744 331.116 132.531L329.532 133.349C329.532 133.349 330.895 136.262 329.757 138.525C329.757 138.525 330.196 134.988 329.198 133.553L327.75 134.575C327.75 134.575 329.017 137.441 328.063 139.319C328.063 139.319 328.159 135.179 327.433 134.831C327.433 134.831 326.162 135.853 325.951 136.276C325.951 136.276 326.816 138.354 326.162 139.394C326.162 139.394 325.934 136.623 325.634 136.596C325.634 136.596 324.325 138.358 324.138 139.601C324.256 138.449 324.673 137.347 325.348 136.405C324.64 136.503 323.977 136.805 323.439 137.274C323.439 137.274 323.695 135.993 325.671 135.983C325.671 135.983 326.745 134.65 327.034 134.579C327.034 134.579 325.082 134.316 323.865 134.783C323.865 134.783 324.973 133.618 327.409 134.296L328.84 133.243C328.84 133.243 326.278 132.759 325.164 133.093C325.164 133.093 326.479 132.071 329.225 133.008L330.769 132.187C330.769 132.187 328.592 131.601 327.273 131.706C327.273 131.706 328.694 131.025 331.219 131.969L332.316 131.543C332.316 131.543 330.718 131.144 330.251 131.069C329.784 130.994 329.76 130.865 329.76 130.865C330.79 130.746 331.833 130.916 332.772 131.355C332.772 131.355 335.086 130.602 335.052 130.456Z" fill="#7A86FF"/>
<path opacity="0.1" d="M291.242 28.9091C291.242 28.9091 280.842 21.1298 277.124 29.5565C277.124 29.5565 275.99 30.7321 276.804 32.1394C276.804 32.1394 277.192 31.5908 278.167 32.5006C278.512 32.8217 278.894 33.1008 279.305 33.332C279.862 33.6417 280.504 33.7613 281.135 33.6728C281.135 33.6728 285.006 34.419 289.466 30.2244C289.466 30.2244 291.054 29.7132 291.204 29.4134L288.863 28.9909C288.863 28.9909 288.618 30.7185 287.408 31.492C287.408 31.492 288.904 29.0863 288.516 28.9125C288.437 28.875 287.268 28.7421 287.268 28.7421C287.268 28.7421 286.829 31.7475 284.921 32.8822C284.921 32.8822 287.091 30.255 286.822 28.6876L285.04 28.5922C285.04 28.5922 284.737 31.7918 282.61 33.1684C282.61 33.1684 284.784 30.3436 284.655 28.599L282.89 28.7421C282.89 28.7421 282.549 31.8532 280.757 32.9844C280.757 32.9844 282.937 29.4679 282.488 28.8C282.488 28.8 280.876 29.0283 280.477 29.2941C280.477 29.2941 280.171 31.5226 279.08 32.0883C279.08 32.0883 280.286 29.5838 280.041 29.41C280.041 29.41 278.02 30.2653 277.226 31.2398C277.913 30.3067 278.832 29.5691 279.891 29.0999C279.232 28.8259 278.507 28.7502 277.806 28.8818C277.806 28.8818 278.675 27.9073 280.385 28.8989C280.385 28.8989 281.983 28.2957 282.256 28.3707C282.256 28.3707 280.706 27.1542 279.421 26.943C279.421 26.943 280.968 26.5 282.723 28.306L284.491 28.1254C284.491 28.1254 282.529 26.4216 281.397 26.1354C281.397 26.1354 283.043 25.9275 284.941 28.1151L286.689 28.1935C286.689 28.1935 285.108 26.5852 283.919 26.0059C283.919 26.0059 285.486 26.1422 287.187 28.231L288.349 28.4184C288.349 28.4184 287.173 27.2667 286.805 26.9668C286.437 26.6669 286.491 26.5681 286.491 26.5681C287.438 26.9886 288.25 27.6633 288.836 28.5172C288.836 28.5172 291.197 29.0488 291.242 28.9091Z" fill="#7A86FF"/>
<path opacity="0.1" d="M299.277 85.0714C299.277 85.0714 295.693 72.5897 287.631 77.0706C287.631 77.0706 286.015 77.3193 285.814 78.9345C285.814 78.9345 286.455 78.7334 286.677 80.0385C286.759 80.5074 286.896 80.9649 287.085 81.4015C287.338 81.9887 287.776 82.477 288.333 82.7918C288.333 82.7918 290.97 85.7222 297.056 85.068C297.056 85.068 298.63 85.62 298.93 85.47L297.318 83.7186C297.318 83.7186 296.081 84.9521 294.65 84.8363C294.65 84.8363 297.294 83.814 297.09 83.4494C297.049 83.3744 296.197 82.5601 296.197 82.5601C296.197 82.5601 294.037 84.6931 291.829 84.4444C291.829 84.4444 295.144 83.6607 295.873 82.25L294.51 81.0982C294.51 81.0982 292.336 83.463 289.811 83.279C289.811 83.279 293.246 82.3352 294.193 80.8665L292.701 79.9158C292.701 79.9158 290.537 82.1818 288.438 82.0114C288.438 82.0114 292.299 80.5224 292.347 79.7216C292.347 79.7216 290.922 78.9311 290.442 78.9038C290.442 78.9038 288.851 80.4917 287.641 80.2873C287.641 80.2873 290.115 79.0163 290.026 78.73C290.026 78.73 287.9 78.1951 286.677 78.4915C287.784 78.163 288.959 78.1289 290.084 78.3927C289.724 77.7761 289.191 77.2786 288.551 76.9615C288.551 76.9615 289.832 76.706 290.595 78.529C290.595 78.529 292.234 79.0129 292.405 79.2377C292.405 79.2377 291.904 77.333 291.007 76.3891C291.007 76.3891 292.507 76.9684 292.81 79.4763L294.33 80.3997C294.33 80.3997 293.798 77.8441 293.062 76.9445C293.062 76.9445 294.5 77.7725 294.694 80.6621L296.057 81.7763C296.057 81.7763 295.768 79.541 295.168 78.3688C295.168 78.3688 296.337 79.4252 296.432 82.1171L297.243 82.9689C297.243 82.9689 297.005 81.3402 296.902 80.8768C296.8 80.4133 296.902 80.3486 296.902 80.3486C297.407 81.2549 297.649 82.2838 297.601 83.3199C297.601 83.3199 299.155 85.1532 299.277 85.0714Z" fill="#7A86FF"/>
<path opacity="0.1" d="M219.398 113.197C219.398 113.197 212.437 102.232 205.973 108.794C205.973 108.794 204.494 109.476 204.753 111.095C204.753 111.095 205.315 110.72 205.895 111.912C206.103 112.335 206.361 112.731 206.665 113.091C207.071 113.583 207.628 113.928 208.249 114.073C208.249 114.073 211.606 116.144 217.262 113.8C217.262 113.8 218.928 113.889 219.174 113.66L217.129 112.434C217.129 112.434 216.287 113.967 214.88 114.257C214.88 114.257 217.136 112.553 216.833 112.239C216.775 112.178 215.725 111.64 215.725 111.64C215.725 111.64 214.25 114.291 212.062 114.676C212.062 114.676 215.023 112.989 215.33 111.428L213.698 110.71C213.698 110.71 212.277 113.589 209.803 114.117C209.803 114.117 212.836 112.246 213.33 110.57L211.626 110.079C211.626 110.079 210.188 112.863 208.127 113.289C208.127 113.289 211.411 110.774 211.231 109.991C211.231 109.991 209.643 109.633 209.186 109.742C209.186 109.742 208.106 111.715 206.886 111.858C206.886 111.858 208.903 109.943 208.736 109.691C208.736 109.691 206.545 109.776 205.455 110.406C206.428 109.776 207.548 109.412 208.706 109.35C208.188 108.86 207.537 108.531 206.835 108.406C206.835 108.406 207.99 107.803 209.22 109.336C209.22 109.336 210.924 109.336 211.159 109.507C211.159 109.507 210.137 107.803 209.016 107.166C209.016 107.166 210.617 107.302 211.612 109.623L213.333 110.079C213.333 110.079 212.103 107.779 211.146 107.121C211.146 107.121 212.757 107.51 213.756 110.232L215.364 110.914C215.364 110.914 214.458 108.852 213.548 107.888C213.548 107.888 214.965 108.57 215.814 111.129L216.836 111.718C216.836 111.718 216.155 110.222 215.913 109.81C215.671 109.398 215.766 109.302 215.766 109.302C216.503 110.031 217.024 110.95 217.269 111.957C217.269 111.957 219.306 113.313 219.398 113.197Z" fill="#7A86FF"/>
<path d="M265.15 57.1709C265.15 57.1709 258.53 45.9977 251.861 52.3561C251.861 52.3561 250.362 53.0035 250.573 54.6187C250.573 54.6187 251.142 54.2575 251.687 55.4671C251.882 55.8971 252.128 56.3021 252.42 56.6734C252.811 57.1759 253.357 57.5352 253.974 57.6956C253.974 57.6956 257.262 59.8696 262.99 57.6956C262.99 57.6956 264.653 57.8353 264.905 57.6139L262.905 56.3258C262.905 56.3258 262.019 57.8285 260.601 58.0773C260.601 58.0773 262.908 56.4315 262.619 56.1214C262.557 56.0566 261.528 55.4842 261.528 55.4842C261.528 55.4842 259.971 58.0909 257.78 58.4078C257.78 58.4078 260.792 56.8131 261.143 55.2661L259.535 54.5096C259.535 54.5096 258.025 57.3481 255.534 57.8013C255.534 57.8013 258.625 56.026 259.17 54.3665L257.487 53.8213C257.487 53.8213 255.96 56.5473 253.889 56.9221C253.889 56.9221 257.248 54.5096 257.092 53.7225C257.092 53.7225 255.517 53.3136 255.047 53.409C255.047 53.409 253.906 55.3479 252.682 55.4535C252.682 55.4535 254.758 53.6066 254.601 53.3477C254.601 53.3477 252.406 53.3647 251.299 53.961C252.291 53.3626 253.422 53.0337 254.58 53.0069C254.077 52.5004 253.436 52.1522 252.737 52.0051C252.737 52.0051 253.912 51.4361 255.122 53.0069C255.122 53.0069 256.826 53.0649 257.054 53.2386C257.054 53.2386 256.09 51.5349 254.986 50.8329C254.986 50.8329 256.581 51.0169 257.504 53.3681L259.208 53.8792C259.208 53.8792 258.053 51.5417 257.112 50.8534C257.112 50.8534 258.714 51.293 259.627 54.0428L261.211 54.7822C261.211 54.7822 260.37 52.6934 259.508 51.7155C259.508 51.7155 260.901 52.4413 261.675 55.0242L262.673 55.6443C262.673 55.6443 262.033 54.128 261.808 53.7089C261.583 53.2897 261.678 53.1977 261.678 53.1977C262.392 53.9485 262.884 54.8827 263.099 55.8965C263.099 55.8965 265.052 57.2833 265.15 57.1709Z" fill="#7A86FF"/>
<path d="M223.263 80.6654C223.263 80.6654 223.603 67.6828 214.584 69.5127C214.584 69.5127 212.969 69.2639 212.287 70.7428C212.287 70.7428 212.969 70.7428 212.778 72.0547C212.715 72.5224 212.709 72.996 212.757 73.4654C212.819 74.102 213.088 74.7008 213.524 75.1691C213.524 75.1691 215.149 78.7606 221.15 79.9805C221.15 79.9805 222.482 80.9857 222.816 80.9312L221.794 78.7776C221.794 78.7776 220.244 79.575 218.911 79.0332C218.911 79.0332 221.739 78.8662 221.661 78.4505C221.661 78.3653 221.075 77.3295 221.075 77.3295C221.075 77.3295 218.369 78.7095 216.342 77.8031C216.342 77.8031 219.75 78.0587 220.864 76.9376L219.913 75.4281C219.913 75.4281 217.126 77.0228 214.775 76.0823C214.775 76.0823 218.335 76.2254 219.685 75.1112L218.55 73.7482C218.55 73.7482 215.8 75.2543 213.851 74.4569C213.851 74.4569 217.981 74.2082 218.281 73.4551C218.281 73.4551 217.163 72.2727 216.713 72.0921C216.713 72.0921 214.717 73.1144 213.626 72.5624C213.626 72.5624 216.352 72.1058 216.369 71.8025C216.369 71.8025 214.505 70.6474 213.248 70.5622C214.407 70.5829 215.541 70.9072 216.536 71.5026C216.381 70.8062 216.026 70.1702 215.514 69.6728C215.514 69.6728 216.812 69.8193 216.989 71.7855C216.989 71.7855 218.41 72.7464 218.502 73.0122C218.502 73.0122 218.601 71.046 218.032 69.8739C218.032 69.8739 219.286 70.8791 218.816 73.3597L219.985 74.7023C219.985 74.7023 220.25 72.1058 219.824 71.0256C219.824 71.0256 220.942 72.2489 220.254 75.0635L221.198 76.5321C221.198 76.5321 221.6 74.3138 221.385 73.0088C221.385 73.0088 222.176 74.3717 221.453 76.9649L221.971 78.0212C221.971 78.0212 222.234 76.3958 222.268 75.9222C222.302 75.4485 222.431 75.4178 222.431 75.4178C222.636 76.4343 222.555 77.4878 222.196 78.4607C222.196 78.4607 223.113 80.7097 223.263 80.6654Z" fill="#7A86FF"/>
<path opacity="0.1" d="M238.174 245.629C243.242 245.629 247.351 244.935 247.351 244.079C247.351 243.222 243.242 242.528 238.174 242.528C233.106 242.528 228.998 243.222 228.998 244.079C228.998 244.935 233.106 245.629 238.174 245.629Z" fill="#7A86FF"/>
<path opacity="0.1" d="M204.721 269.168C209.789 269.168 213.898 268.474 213.898 267.618C213.898 266.762 209.789 266.067 204.721 266.067C199.653 266.067 195.545 266.762 195.545 267.618C195.545 268.474 199.653 269.168 204.721 269.168Z" fill="#7A86FF"/>
<path opacity="0.1" d="M31.7369 257.109C36.8049 257.109 40.9133 256.414 40.9133 255.558C40.9133 254.702 36.8049 254.008 31.7369 254.008C26.669 254.008 22.5605 254.702 22.5605 255.558C22.5605 256.414 26.669 257.109 31.7369 257.109Z" fill="#7A86FF"/>
<path opacity="0.1" d="M274.323 267.617C279.391 267.617 283.499 266.923 283.499 266.067C283.499 265.211 279.391 264.517 274.323 264.517C269.255 264.517 265.146 265.211 265.146 266.067C265.146 266.923 269.255 267.617 274.323 267.617Z" fill="#7A86FF"/>
<path d="M283.877 248.713C291.444 248.713 297.579 247.676 297.579 246.396C297.579 245.116 291.444 244.079 283.877 244.079C276.31 244.079 270.176 245.116 270.176 246.396C270.176 247.676 276.31 248.713 283.877 248.713Z" fill="#7A86FF"/>
<path d="M289.559 242.604C290.184 242.095 290.64 241.408 290.864 240.634C291.034 239.85 290.7 238.913 289.954 238.627C289.116 238.307 288.22 238.886 287.538 239.472C286.857 240.058 286.083 240.73 285.194 240.607C285.651 240.192 285.992 239.666 286.186 239.081C286.379 238.495 286.418 237.869 286.298 237.264C286.259 237.013 286.153 236.778 285.991 236.583C285.525 236.085 284.683 236.3 284.124 236.692C282.352 237.939 281.858 240.344 281.848 242.512C281.671 241.731 281.821 240.917 281.817 240.126C281.814 239.336 281.592 238.423 280.914 238.007C280.498 237.775 280.028 237.657 279.551 237.666C278.754 237.639 277.864 237.717 277.323 238.3C276.641 239.022 276.822 240.239 277.408 241.026C277.994 241.813 278.89 242.321 279.715 242.873C280.375 243.267 280.938 243.804 281.364 244.444C281.412 244.533 281.452 244.626 281.483 244.723H286.479C287.597 244.16 288.633 243.447 289.559 242.604Z" fill="#7A86FF"/>
<path d="M25.5762 248.351C25.5762 248.351 30.8067 248.191 32.3912 247.067C33.9756 245.942 40.4431 244.603 40.8349 246.406C41.2268 248.208 48.6994 255.364 42.7908 255.412C36.8822 255.459 29.062 254.492 27.4878 253.531C25.9135 252.57 25.5762 248.351 25.5762 248.351Z" fill="#A8A8A8"/>
<path opacity="0.2" d="M42.8896 254.785C36.9811 254.833 29.1609 253.865 27.5866 252.904C26.3872 252.175 25.9101 249.554 25.75 248.345H25.5762C25.5762 248.345 25.9169 252.567 27.481 253.524C29.045 254.482 36.8754 255.453 42.784 255.405C44.4878 255.405 45.0773 254.785 45.0466 253.885C44.8081 254.434 44.1572 254.775 42.8896 254.785Z" fill="black"/>
</g>
<defs>
<linearGradient id="paint0_linear" x1="75.984" y1="147.688" x2="182.342" y2="147.688" gradientUnits="userSpaceOnUse">
<stop stop-color="#808080" stop-opacity="0.25"/>
<stop offset="0.54" stop-color="#808080" stop-opacity="0.12"/>
<stop offset="1" stop-color="#808080" stop-opacity="0.1"/>
</linearGradient>
<clipPath id="clip0">
<rect width="344" height="269.168" fill="white"/>
</clipPath>
</defs>
</svg>
